PathFileType	4	(X/Y/Z)	./resultDataOpenSim/trcMotMarkerGrf/sub06/qtm-12-06.trc
DataRate	CameraRate	NumFrames	NumMarkers	Units	OrigDataRate	OrigDataStartFrame	OrigNumFrames
250.000000	250.000000	13	24	m	250.000000	68	538
Frame#	Time	L.Toe.Tip			R.Toe.Tip			L.Ankle.Lat			R.Ankle.Lat			L.Ankle.Med			R.Ankle.Med			L.Heel			R.Heel			L.Knee.Lat			R.Knee.Lat			L.Knee.Med			R.Knee.Med			L.Thigh.Upper			R.Thigh.Upper			L.ASIS			R.ASIS			V.Sacral			L.Acromium			R.Acromium			C7			L.Elbow			R.Elbow			L.Wrist.Lat			R.Wrist.Lat
		X1	Y1	Z1	X2	Y2	Z2	X3	Y3	Z3	X4	Y4	Z4	X5	Y5	Z5	X6	Y6	Z6	X7	Y7	Z7	X8	Y8	Z8	X9	Y9	Z9	X10	Y10	Z10	X11	Y11	Z11	X12	Y12	Z12	X13	Y13	Z13	X14	Y14	Z14	X15	Y15	Z15	X16	Y16	Z16	X17	Y17	Z17	X18	Y18	Z18	X19	Y19	Z19	X20	Y20	Z20	X21	Y21	Z21	X22	Y22	Z22	X23	Y23	Z23	X24	Y24	Z24

68	0.268	-1.4319679	0.071800523	-0.089798279	-0.74810946	0.036742992	0.098209174	-1.4166606	0.20286177	-0.11442422	-0.88184385	0.061837178	0.12150857	-1.396218	0.2010155	-0.03290591	-0.86596997	0.080020814	0.034356673	-1.4560871	0.2608581	-0.061866938	-0.93951647	0.037573583	0.061096507	-1.077384	0.37759293	-0.13417522	-0.83678289	0.44598265	0.14511493	-1.0696446	0.36313013	-0.015850725	-0.8736127	0.43059381	0.022094796	-1.0485357	0.76653763	-0.13873573	-0.98615801	0.79070727	0.20200277	-0.96263369	0.81607894	-0.10667852	-0.91576267	0.83802528	0.13042426	-1.1226164	0.90735187	0.041395523	-0.98043725	1.3114772	-0.15056198	-0.9734094	1.2865995	0.21253964	-1.0612971	1.3403945	0.032124442	-0.98468607	0.98768534	-0.22097267	-1.1001272	0.99793315	0.25965587	-0.77451415	0.85767562	-0.18717143	-1.0351419	0.77296957	0.3181413
69	0.272	-1.4192162	0.074081374	-0.088410799	-0.7481395	0.03670406	0.098275158	-1.4044538	0.20525442	-0.11350134	-0.8818653	0.061758104	0.12152326	-1.38361	0.20392685	-0.032086254	-0.86586252	0.080122452	0.034456056	-1.4445339	0.26316539	-0.060936893	-0.93955168	0.037623799	0.061115577	-1.0648692	0.37810275	-0.1342473	-0.83455551	0.44549829	0.14590144	-1.057299	0.36418332	-0.015512226	-0.8711854	0.43066212	0.022795708	-1.0415763	0.76782142	-0.13811025	-0.98073049	0.79165399	0.20241396	-0.95612402	0.81756481	-0.10614144	-0.90977736	0.83909588	0.13132132	-1.1168121	0.90879846	0.040034681	-0.97463286	1.3128339	-0.15038441	-0.96673441	1.2879584	0.21280253	-1.0548783	1.3419785	0.032630372	-0.97977043	0.9890172	-0.22007642	-1.0914644	0.99879313	0.26139896	-0.76984023	0.85784683	-0.18681529	-1.0246984	0.77389733	0.31849203
70	0.276	-1.4058847	0.07615742	-0.086983218	-0.74820359	0.036676887	0.098360466	-1.3921336	0.20746729	-0.11247572	-0.88195467	0.061684808	0.12156259	-1.3712446	0.20657275	-0.031051972	-0.86579831	0.080217523	0.034575702	-1.4327642	0.26524554	-0.060060259	-0.93959348	0.037672228	0.061126971	-1.0522472	0.37879809	-0.13428477	-0.83284262	0.44500191	0.14677163	-1.0449395	0.36539148	-0.01512518	-0.86895363	0.43075646	0.023439101	-1.0345714	0.76914266	-0.13747651	-0.9755069	0.79262914	0.20278213	-0.94967037	0.81909711	-0.10563374	-0.90386936	0.84023409	0.13223889	-1.1105163	0.91025087	0.03921262	-0.96889105	1.3142495	-0.15020385	-0.96016124	1.2893911	0.2130692	-1.0485101	1.3435938	0.033088186	-0.97493463	0.99042316	-0.21921196	-1.0825625	0.99955271	0.26319236	-0.76552441	0.85803008	-0.1865678	-1.0143294	0.77486409	0.31884704
71	0.28	-1.3919834	0.078009086	-0.085546904	-0.74829957	0.036658403	0.098464023	-1.379744	0.20941253	-0.11135085	-0.88211589	0.061628026	0.1216267	-1.3587871	0.20898879	-0.029941106	-0.86578871	0.080303641	0.034715634	-1.4208534	0.26706082	-0.059228821	-0.93964309	0.03772402	0.06113858	-1.0395392	0.37966866	-0.13429051	-0.83123944	0.44457244	0.14759435	-1.0325419	0.36673767	-0.014712438	-0.86681533	0.43085399	0.023983202	-1.0275399	0.77050999	-0.13687746	-0.97049864	0.79375327	0.20316236	-0.94323022	0.82068905	-0.10511882	-0.89802963	0.84142187	0.13318058	-1.103589	0.91166114	0.038868175	-0.963197	1.3157245	-0.15001879	-0.95368181	1.2908966	0.21333206	-1.0421954	1.3452238	0.033503816	-0.97027471	0.99189614	-0.21852394	-1.0734792	1.000202	0.26486425	-0.76178495	0.85822453	-0.18649513	-1.0038878	0.77590998	0.3191843
72	0.284	-1.3776269	0.079621417	-0.084061825	-0.74842082	0.036646461	0.098580586	-1.367169	0.21106681	-0.11018597	-0.88233496	0.061588196	0.12171663	-1.346124	0.21117235	-0.028803247	-0.86584452	0.080383883	0.034874685	-1.4088305	0.26857272	-0.058391348	-0.9397001	0.03778407	0.06115636	-1.0268186	0.38068826	-0.13423992	-0.82954769	0.4442572	0.14829253	-1.0200712	0.36821402	-0.014293352	-0.86476702	0.43095242	0.024450935	-1.0205733	0.7719556	-0.13638962	-0.96587339	0.7949916	0.20354009	-0.93676583	0.82234353	-0.10456537	-0.89219312	0.84264215	0.13415136	-1.0961584	0.91299022	0.038726946	-0.95753878	1.3172568	-0.1498314	-0.94728974	1.2924757	0.21358872	-1.0359309	1.3468609	0.033880141	-0.96591277	0.99341957	-0.21823877	-1.0643975	1.0008262	0.2663526	-0.75848186	0.85844837	-0.18653927	-0.99319926	0.77710985	0.31946738
73	0.288	-1.3629409	0.081009738	-0.082529803	-0.74855924	0.036641473	0.098704583	-1.3543283	0.21247327	-0.10900506	-0.88258578	0.061562669	0.1218305	-1.3332888	0.21310419	-0.027632742	-0.86597414	0.080461558	0.035049683	-1.3966725	0.26974103	-0.057427026	-0.93976049	0.037854747	0.061178902	-1.0141554	0.38184117	-0.13409886	-0.82781868	0.44404412	0.14883438	-1.0075141	0.36979878	-0.013875173	-0.86290289	0.43105897	0.024906482	-1.0137306	0.77350558	-0.13602206	-0.96172246	0.79621125	0.20386025	-0.93026268	0.82404569	-0.10396941	-0.88621853	0.84389335	0.1351688	-1.0887371	0.91434111	0.038754709	-0.95191076	1.3188438	-0.14964303	-0.94097387	1.2941252	0.21383834	-1.0297152	1.3485068	0.034217022	-0.96186173	0.99498614	-0.21847661	-1.0555585	1.0015221	0.26761166	-0.75527129	0.8587135	-0.18658016	-0.98223457	0.77850408	0.31967874
74	0.292	-1.3480469	0.082197876	-0.081008985	-0.74870573	0.036645161	0.098831954	-1.341243	0.21366201	-0.10775958	-0.88284579	0.061550182	0.12196519	-1.3202896	0.21477761	-0.026435441	-0.86616523	0.080537721	0.035234269	-1.3843649	0.27058278	-0.056290713	-0.93981866	0.037936179	0.061202892	-1.0015727	0.38313252	-0.13385872	-0.82619873	0.4439058	0.14917522	-0.99488234	0.3714636	-0.013447885	-0.86127888	0.43117977	0.025366746	-1.0069603	0.77515068	-0.13569066	-0.95802254	0.79731893	0.20406438	-0.92374243	0.82577034	-0.10336306	-0.87996132	0.84517951	0.13625721	-1.0821299	0.91595639	0.039291022	-0.94630904	1.3204842	-0.14944924	-0.93472289	1.2958402	0.21408144	-1.0235487	1.3501625	0.03451605	-0.95789892	0.99661205	-0.21897918	-1.0470186	1.0023232	0.26865567	-0.75195512	0.85901127	-0.18656542	-0.97108551	0.78007294	0.31982237
75	0.296	-1.3330124	0.083192179	-0.079537999	-0.74885076	0.03665768	0.098958393	-1.3280283	0.21461002	-0.10639902	-0.88310539	0.061547582	0.12211727	-1.3071067	0.21619937	-0.025236833	-0.86637027	0.080616614	0.035419685	-1.3719468	0.2711923	-0.055119381	-0.9398697	0.038027069	0.061231403	-0.98905984	0.38456949	-0.13353953	-0.82482603	0.44383173	0.14933293	-0.98221762	0.37318137	-0.012967185	-0.85984081	0.43132139	0.025791961	-1.0001761	0.7768685	-0.13532671	-0.95427455	0.79835156	0.20423588	-0.91724131	0.82749974	-0.10278335	-0.87349267	0.84649498	0.13741224	-1.0768941	0.91796372	0.040619755	-0.94072686	1.322176	-0.14924044	-0.92853077	1.2976169	0.21431779	-1.0174298	1.3518225	0.034784857	-0.95367987	0.9983078	-0.21919615	-1.0386393	1.0032085	0.26957937	-0.74855932	0.85933549	-0.18652397	-0.9598369	0.7817743	0.31990595
76	0.3	-1.3178371	0.083979898	-0.078102747	-0.74898704	0.036675689	0.099079787	-1.3147624	0.2152866	-0.10498435	-0.88335803	0.061548228	0.12227684	-1.2937983	0.21737826	-0.024041115	-0.8665368	0.080707005	0.035600225	-1.3594534	0.27162928	-0.054075887	-0.93991105	0.03812511	0.061269304	-0.97660248	0.38614666	-0.13316792	-0.82375732	0.4438241	0.14948947	-0.96960104	0.37495142	-0.012374363	-0.85851666	0.43149416	0.026160362	-0.99334164	0.77865045	-0.13493265	-0.94970012	0.79943945	0.20460066	-0.91077182	0.82923412	-0.10223914	-0.86728278	0.84782224	0.1385587	-1.0726826	0.9201417	0.042461539	-0.93515291	1.3239106	-0.14901213	-0.92238591	1.2994502	0.21454116	-1.0113553	1.3534782	0.035036557	-0.94906016	1.0000543	-0.21879371	-1.0302757	1.0041509	0.27047423	-0.74517673	0.85969333	-0.18649955	-0.94852278	0.78358075	0.31993355
77	0.304	-1.3025058	0.084549063	-0.07668008	-0.74911058	0.036693449	0.099193925	-1.3013518	0.21569793	-0.10365922	-0.8835895	0.061548114	0.12242817	-1.2804769	0.2183206	-0.022824896	-0.86664881	0.080814882	0.035778361	-1.3468177	0.27181401	-0.053124139	-0.93994387	0.038228614	0.061314325	-0.96418763	0.38785059	-0.13276392	-0.82292716	0.44387945	0.14985481	-0.95717833	0.37683134	-0.011631887	-0.85728984	0.43171062	0.026494684	-0.98646151	0.78049285	-0.13453188	-0.94418659	0.80066001	0.20524944	-0.90431678	0.83098679	-0.10171589	-0.86189067	0.84914547	0.13958882	-1.0683785	0.9221217	0.04410261	-0.92957567	1.3256758	-0.14876947	-0.91626304	1.3013273	0.21474091	-1.005321	1.3551244	0.035282269	-0.944256	1.0018394	-0.21794291	-1.0218714	1.0051386	0.27137056	-0.74186039	0.86008355	-0.18652064	-0.93714945	0.78548409	0.31990771
78	0.308	-1.2870127	0.084902567	-0.075269033	-0.7492195	0.036706675	0.099299171	-1.2877045	0.21588007	-0.10245896	-0.88378734	0.061550647	0.12256163	-1.267145	0.21902834	-0.021577578	-0.86671833	0.080940398	0.035961038	-1.3339173	0.27162672	-0.052070731	-0.93997125	0.038338297	0.061358498	-0.9518031	0.3896713	-0.13234039	-0.82216599	0.44397233	0.15041039	-0.94509552	0.37888053	-0.010735919	-0.85615174	0.43198061	0.026814753	-0.97955112	0.78238743	-0.134134	-0.93836089	0.80195838	0.20603389	-0.89784498	0.832775	-0.10118551	-0.85725529	0.85046866	0.14049086	-1.063132	0.92379941	0.045064589	-0.92398912	1.3274635	-0.14851794	-0.91013395	1.3032273	0.21491129	-0.9993229	1.3567607	0.03552716	-0.93961989	1.0036795	-0.21704089	-1.0134532	1.0061677	0.27223422	-0.73862403	0.86048634	-0.18660445	-0.92571464	0.78748221	0.3198275
79	0.312	-1.2713404	0.085058053	-0.073891595	-0.74931271	0.036715141	0.099391877	-1.2739044	0.2158664	-0.10127178	-0.88395039	0.061563122	0.12267759	-1.2536968	0.21949842	-0.020321631	-0.8667567	0.081083233	0.036148265	-1.3207528	0.27108355	-0.050832833	-0.9399951	0.038455806	0.061395959	-0.93943997	0.39160487	-0.13190382	-0.8212925	0.44406578	0.15094721	-0.9332394	0.38106281	-0.0097642767	-0.85505883	0.43229858	0.027100134	-0.97262275	0.78432213	-0.13373614	-0.93275295	0.80322871	0.20678875	-0.89132131	0.83461587	-0.10060517	-0.85268508	0.8518159	0.14136694	-1.0569761	0.92533734	0.045422565	-0.9183882	1.3292664	-0.14825787	-0.90398069	1.3051318	0.21505604	-0.99335853	1.3583874	0.035778912	-0.9352971	1.0055869	-0.21630875	-1.0051074	1.0072277	0.27298979	-0.73547383	0.86088323	-0.18675937	-0.91421694	0.78957132	0.31969029
80	0.316	-1.2554418	0.08504412	-0.07259726	-0.74938924	0.03672156	0.099466296	-1.2600413	0.21566672	-0.10002191	-0.88408182	0.061590029	0.12277782	-1.2400441	0.21973139	-0.019089904	-0.86677304	0.08124381	0.036324947	-1.3074667	0.27029823	-0.049524638	-0.94001667	0.038580789	0.06142729	-0.92708776	0.39364427	-0.13145403	-0.82024122	0.44414232	0.15132879	-0.92123861	0.38328099	-0.0088623926	-0.85396983	0.43263901	0.027318784	-0.96568107	0.78627953	-0.13333661	-0.92743568	0.80441863	0.20748929	-0.88472702	0.83651682	-0.099941273	-0.84767824	0.85320685	0.14229142	-1.0504153	0.92688065	0.0455018	-0.91276466	1.3310738	-0.14798895	-0.89779892	1.3070316	0.21518039	-0.98742531	1.3600039	0.036052309	-0.93117864	1.0075485	-0.21571603	-0.99691925	1.0083078	0.27359472	-0.7324112	0.86127812	-0.18698128	-0.90265988	0.79174643	0.31949827
